<svg fill="none" height="16" viewBox="0 0 16 16" width="16" xmlns="http://www.w3.org/2000/svg"><rect fill="#1d0d1a" height="16" rx="2" width="16"/><path d="m3 4.35301c0-.06313.03567-.12084.09213-.14908l2.28727-1.14363c.05541-.0277.1206.01259.1206.07454v8.51216c0 .0631-.03567.1208-.09213.1491l-2.28727 1.1436c-.05541.0277-.1206-.0126-.1206-.0745z" fill="#b0a189"/><path d="m3.06946 4.33104c-.03528-.04117-.02249-.10453.026-.12877l2.28815-1.14408c.0684-.0342.15131-.01746.20108.04061l7.34581 8.57c.0353.0411.0225.1045-.026.1287l-2.2881 1.1441c-.0684.0342-.1513.0175-.2011-.0406z" fill="#e2d8c8"/><path d="m10.5 4.35301c0-.06313.0357-.12084.0921-.14908l2.2873-1.14363c.0554-.0277.1206.01259.1206.07454v8.51226c0 .0631-.0357.1208-.0921.149l-2.2873 1.1437c-.0554.0277-.1206-.0126-.1206-.0746z" fill="#b0a189"/></svg>