<svg width="16" height="16" viewBox="0 0 16 16" fill="none" xmlns="http://www.w3.org/2000/svg">
<rect width="16" height="16" rx="1" fill="black"/>
<path d="M3 4.35301C3 4.28988 3.03567 4.23217 3.09213 4.20393L5.3794 3.0603C5.43481 3.0326 5.5 3.07289 5.5 3.13484V11.647C5.5 11.7101 5.46433 11.7678 5.40787 11.7961L3.1206 12.9397C3.06519 12.9674 3 12.9271 3 12.8652V4.35301Z" fill="#9CA3AF"/>
<path d="M3.06946 4.33104C3.03418 4.28987 3.04697 4.22651 3.09546 4.20227L5.38361 3.05819C5.45201 3.02399 5.53492 3.04073 5.58469 3.0988L12.9305 11.6688C12.9658 11.7099 12.953 11.7733 12.9045 11.7975L10.6164 12.9416C10.548 12.9758 10.4651 12.9591 10.4153 12.901L3.06946 4.33104Z" fill="#F3F4F6"/>
<path d="M10.5 4.35301C10.5 4.28988 10.5357 4.23217 10.5921 4.20393L12.8794 3.0603C12.9348 3.0326 13 3.07289 13 3.13484V11.6471C13 11.7102 12.9643 11.7679 12.9079 11.7961L10.6206 12.9398C10.5652 12.9675 10.5 12.9272 10.5 12.8652V4.35301Z" fill="#9CA3AF"/>
</svg>
