<svg width="84" height="84" viewBox="0 0 84 84" fill="none" xmlns="http://www.w3.org/2000/svg">
<rect x="0.75" y="0.75" width="82.5" height="82.5" rx="3.25" stroke="black" stroke-width="1.5"/>
<path d="M15.75 22.8533C15.75 22.5219 15.9373 22.2189 16.2337 22.0707L28.2418 16.0666C28.5327 15.9211 28.875 16.1327 28.875 16.4579V61.1467C28.875 61.4781 28.6877 61.7811 28.3913 61.9293L16.3832 67.9334C16.0923 68.0789 15.75 67.8673 15.75 67.5421V22.8533Z" stroke="black" stroke-width="1.5"/>
<path d="M16.1147 22.7379C15.9294 22.5218 15.9966 22.1892 16.2512 22.0619L28.264 16.0555C28.6231 15.876 29.0583 15.9639 29.3196 16.2687L67.8853 61.261C68.0706 61.4771 68.0034 61.8097 67.7488 61.937L55.736 67.9434C55.3769 68.123 54.9417 68.0351 54.6804 67.7302L16.1147 22.7379Z" stroke="black" stroke-width="1.5"/>
<path d="M55.125 22.8533C55.125 22.5219 55.3123 22.2189 55.6087 22.0707L67.6168 16.0666C67.9077 15.9211 68.25 16.1327 68.25 16.4579V61.1471C68.25 61.4786 68.0627 61.7815 67.7663 61.9298L55.7582 67.9338C55.4673 68.0793 55.125 67.8678 55.125 67.5425V22.8533Z" stroke="black" stroke-width="1.5"/>
</svg>
