<svg width="32" height="64" viewBox="0 0 32 64" fill="none" xmlns="http://www.w3.org/2000/svg">
<g clip-path="url(#clip0_1513_116712)">
<path d="M8.61864 44.8057C8.61876 44.8057 8.61879 44.8055 8.61871 44.8054C8.61865 44.8053 8.61855 44.8053 8.61846 44.8054L1.23478 48.4972C1.23457 48.4973 1.23452 48.4976 1.23467 48.4977L1.23473 48.4978C1.23492 48.498 1.23528 48.4979 1.23528 48.4976C1.23528 48.4975 1.23534 48.4974 1.23545 48.4973L8.61864 44.8057Z" fill="#9CA3AF"/>
<path d="M9.97736 46.3582C9.83907 46.2001 9.61149 46.1554 9.42364 46.2493L2.89263 49.5148C2.62234 49.6499 2.5527 50.0041 2.7517 50.2315L13.922 62.9975C14.0603 63.1556 14.2878 63.2003 14.4757 63.1064L21.0067 59.8409C21.277 59.7058 21.3466 59.3516 21.1476 59.1242L9.97736 46.3582Z" fill="#9CA3AF"/>
<path d="M28.3736 47.8471C28.5821 47.7417 28.7972 47.9772 28.6734 48.1753L21.6285 59.4471C21.5837 59.5189 21.5199 59.577 21.4442 59.615L14.4469 63.128C14.2378 63.233 14.0232 62.996 14.1484 62.7983L21.3077 51.4941C21.3522 51.4238 21.415 51.3668 21.4893 51.3292L28.3736 47.8471Z" fill="black"/>
<path d="M1.23438 21.0951C1.23438 20.9203 1.33314 20.7605 1.48949 20.6824L7.95069 17.4518C8.25756 17.2983 8.6186 17.5215 8.6186 17.8645V42.6774C8.6186 42.8522 8.51984 43.012 8.36349 43.0902L1.56833 46.4877C1.4149 46.5645 1.23438 46.4529 1.23438 46.2813V21.0951Z" fill="black"/>
<path d="M1.61905 21.2587C1.42365 21.0307 1.49452 20.6798 1.76307 20.5456L8.29631 17.2789C8.48572 17.1842 8.71529 17.2306 8.85311 17.3914L30.3866 42.5138C30.582 42.7418 30.5111 43.0927 30.2426 43.2269L23.7094 46.4936C23.5199 46.5883 23.2904 46.5419 23.1526 46.3811L1.61905 21.2587Z" fill="#9CA3AF"/>
<path d="M23.3828 21.7105C23.3828 21.5357 23.4816 21.3759 23.6379 21.2977L30.4331 17.9001C30.5865 17.8234 30.767 17.935 30.767 18.1065V43.2927C30.767 43.4675 30.6683 43.6273 30.5119 43.7055L23.7168 47.1031C23.5633 47.1798 23.3828 47.0682 23.3828 46.8967V21.7105Z" fill="black"/>
<path d="M3.65542 15.9111C3.44697 16.0153 3.23303 15.78 3.35654 15.5824L10.4051 4.30467C10.4501 4.23266 10.5141 4.17446 10.5901 4.13648L16.3911 1.23599C16.808 1.02754 17.2359 1.49813 16.9888 1.89338L10.3749 12.4756C10.3299 12.5476 10.2659 12.6058 10.19 12.6438L3.65542 15.9111Z" fill="black"/>
<path d="M22.0327 17.4105C22.171 17.5685 22.3985 17.6133 22.5864 17.5193L29.1174 14.2538C29.3877 14.1187 29.4573 13.7646 29.2583 13.5371L18.0878 0.770783C17.9495 0.612727 17.7219 0.567978 17.5341 0.661902L11.003 3.92741C10.7328 4.06256 10.6631 4.41669 10.8621 4.64411L22.0327 17.4105Z" fill="#9CA3AF"/>
</g>
<defs>
<clipPath id="clip0_1513_116712">
<rect width="29.5385" height="62.9976" fill="white" transform="translate(1.23438 0.501221)"/>
</clipPath>
</defs>
</svg>
